<svg class="main-svg" xmlns="http://www.w3.org/2000/svg" xmlns:xlink="http://www.w3.org/1999/xlink" width="1000" height="650" style="" viewBox="0 0 1000 650"><rect x="0" y="0" width="1000" height="650" style="fill: rgb(255, 255, 255); fill-opacity: 1;"/><defs id="defs-7683e5"><g class="clips"><clipPath id="clip7683e5xyplot" class="plotclip"><rect width="834" height="470"/></clipPath><clipPath class="axesclip" id="clip7683e5x"><rect x="86" y="0" width="834" height="650"/></clipPath><clipPath class="axesclip" id="clip7683e5y"><rect x="0" y="100" width="1000" height="470"/></clipPath><clipPath class="axesclip" id="clip7683e5xy"><rect x="86" y="100" width="834" height="470"/></clipPath></g><g class="gradients"/><g class="patterns"/></defs><g class="bglayer"/><g class="layer-below"><g class="imagelayer"/><g class="shapelayer"/></g><g class="cartesianlayer"><g class="subplot xy"><g class="layer-subplot"><g class="shapelayer"/><g class="imagelayer"/></g><g class="minor-gridlayer"><g class="x"/><g class="y"/></g><g class="gridlayer"><g class="x"><path class="xgrid crisp" transform="translate(145.78,0)" d="M0,100v470" style="stroke: rgb(238, 238, 238); stroke-opacity: 1; stroke-width: 1px;"/><path class="xgrid crisp" transform="translate(307.18,0)" d="M0,100v470" style="stroke: rgb(238, 238, 238); stroke-opacity: 1; stroke-width: 1px;"/><path class="xgrid crisp" transform="translate(468.58,0)" d="M0,100v470" style="stroke: rgb(238, 238, 238); stroke-opacity: 1; stroke-width: 1px;"/><path class="xgrid crisp" transform="translate(629.98,0)" d="M0,100v470" style="stroke: rgb(238, 238, 238); stroke-opacity: 1; stroke-width: 1px;"/><path class="xgrid crisp" transform="translate(791.38,0)" d="M0,100v470" style="stroke: rgb(238, 238, 238); stroke-opacity: 1; stroke-width: 1px;"/></g><g class="y"><path class="ygrid crisp" transform="translate(0,430.53)" d="M86,0h834" style="stroke: rgb(238, 238, 238); stroke-opacity: 1; stroke-width: 1px;"/><path class="ygrid crisp" transform="translate(0,341.72)" d="M86,0h834" style="stroke: rgb(238, 238, 238); stroke-opacity: 1; stroke-width: 1px;"/><path class="ygrid crisp" transform="translate(0,252.92)" d="M86,0h834" style="stroke: rgb(238, 238, 238); stroke-opacity: 1; stroke-width: 1px;"/><path class="ygrid crisp" transform="translate(0,164.11)" d="M86,0h834" style="stroke: rgb(238, 238, 238); stroke-opacity: 1; stroke-width: 1px;"/></g></g><g class="zerolinelayer"><path class="yzl zl crisp" transform="translate(0,519.3299999999999)" d="M86,0h834" style="stroke: rgb(68, 68, 68); stroke-opacity: 1; stroke-width: 1px;"/></g><path class="xlines-below"/><path class="ylines-below"/><g class="overlines-below"/><g class="xaxislayer-below"/><g class="yaxislayer-below"/><g class="overaxes-below"/><g class="plot" transform="translate(86,100)" clip-path="url(#clip7683e5xyplot)"><g class="scatterlayer mlayer"><g class="trace scatter trace95f1a0" style="stroke-miterlimit: 2; opacity: 1;"><g class="fills"/><g class="errorbars"/><g class="lines"><path class="js-line" d="M-101.63,419.33L33.97,418.44L39.5,407.79L47.68,393.58L55.74,376.71L63.79,335.86L71.92,289.68L88.02,162.69L96.1,143.15L104.12,116.51L112.23,85.43L120.31,96.97L128.37,104.08L136.47,137.82L144.53,162.69L152.58,187.55L160.66,193.77L168.77,242.61L176.78,249.72L184.86,279.02L192.96,302.11L200.95,326.97L209.12,335.86L217.1,359.83L225.12,368.71L233.23,375.82L241.37,373.15L249.32,390.03L257.18,391.8L265.33,395.35L273.79,402.46L281.98,402.46L289.83,408.67L297.89,410.45L305.19,414L315.14,411.34L321.71,414.89L329.87,416.67L338.22,414.89L346.69,415.78L354.69,418.44L360.63,418.44L372.12,417.55L384.74,418.44L395.84,418.44" style="vector-effect: non-scaling-stroke; fill: none; stroke: rgb(0, 0, 255); stroke-opacity: 1; stroke-width: 2px; opacity: 1;"/></g><g class="points"/><g class="text"/></g><g class="trace scatter trace3d98dc" style="stroke-miterlimit: 2; opacity: 1;"><g class="fills"/><g class="errorbars"/><g class="lines"><path class="js-line" d="M-91.35,286.12L-77.4,239.95L-61.28,222.19L-45.12,247.94L-28.86,247.05L-12.87,264.81L3.29,268.36L19.45,259.48L35.54,275.47L51.72,254.16L67.9,255.04L83.95,106.74L100.08,64.11L116.31,271.92L132.36,269.25L148.58,271.03L164.67,262.15L180.68,262.15L196.94,279.91L213.07,277.24L229.26,315.43L245.53,307.44L261.56,323.42L277.64,327.86L293.93,346.51L309.8,343.85L325.84,361.61L342.29,365.16L358.34,369.6L375.2,381.15L390.82,376.71L406.91,380.26L422.15,399.79L438.72,405.12L455.28,401.57L470.52,408.67L488.55,406.9L502.82,412.23L521.16,398.91L529.06,415.78" style="vector-effect: non-scaling-stroke; fill: none; stroke: rgb(255, 255, 0); stroke-opacity: 1; stroke-width: 2px; opacity: 1;"/></g><g class="points"/><g class="text"/></g><g class="trace scatter traceff7390" style="stroke-miterlimit: 2; opacity: 1;"><g class="fills"/><g class="errorbars"/><g class="lines"><path class="js-line" d="M-101.63,419.33L-45.5,413.11L-29.3,401.57L-12.67,364.27L3.38,298.56L19.75,227.51L35.52,104.96L51.7,41.91L67.86,53.46L84,36.58L100.14,111.18L116.26,88.09L132.37,135.16L148.57,155.58L164.66,197.32L180.76,240.83L197.01,272.8L213.08,176.01L229.23,295.89L245.26,331.41L261.49,355.39L277.68,359.83L293.85,360.72L310.15,372.26L326.36,390.91L342.46,384.7L358.28,394.47L391.35,403.35L406.57,405.12L422.37,410.45L439.13,412.23L455.49,409.56L471.11,414L485.45,415.78L498.26,418.44L522.09,413.11L534.21,417.55L550.85,415.78L566.5,417.55L587.36,417.55L653.01,418.44" style="vector-effect: non-scaling-stroke; fill: none; stroke: rgb(0, 128, 0); stroke-opacity: 1; stroke-width: 2px; opacity: 1;"/></g><g class="points"/><g class="text"/></g><g class="trace scatter tracea5f526" style="stroke-miterlimit: 2; opacity: 1;"><g class="fills"/><g class="errorbars"/><g class="lines"><path class="js-line" d="M-101.63,419.33L488.15,418.44L493.8,416.67L495.74,418.44L501.33,415.78L505.18,415.78L509.47,406.01L513.74,383.81L517.81,353.62L521.79,283.46L525.83,235.51L529.87,196.43L533.89,145.81L537.94,138.71L541.96,96.08L545.99,122.72L550.03,100.52L554.07,86.32L558.09,84.54L562.14,96.97L566.17,144.93L570.21,214.19L574.25,215.97L582.35,286.12L586.35,304.77L590.33,366.94L594.43,373.15L606.37,408.67L610.35,411.34L615.28,414L618.66,414.89L626.24,418.44" style="vector-effect: non-scaling-stroke; fill: none; stroke: rgb(255, 165, 0); stroke-opacity: 1; stroke-width: 2px; opacity: 1;"/></g><g class="points"/><g class="text"/></g></g></g><g class="overplot"/><path class="xlines-above crisp" d="M0,0" style="fill: none;"/><path class="ylines-above crisp" d="M0,0" style="fill: none;"/><g class="overlines-above"/><g class="xaxislayer-above"><g class="xtick"><text text-anchor="middle" x="0" y="596" transform="translate(145.78,0)" style="font-family: 'Open Sans', verdana, arial, sans-serif; font-size: 25px; fill: rgb(68, 68, 68); fill-opacity: 1; white-space: pre; opacity: 1;">0.002</text></g><g class="xtick"><text text-anchor="middle" x="0" y="596" style="font-family: 'Open Sans', verdana, arial, sans-serif; font-size: 25px; fill: rgb(68, 68, 68); fill-opacity: 1; white-space: pre; opacity: 1;" transform="translate(307.18,0)">0.004</text></g><g class="xtick"><text text-anchor="middle" x="0" y="596" style="font-family: 'Open Sans', verdana, arial, sans-serif; font-size: 25px; fill: rgb(68, 68, 68); fill-opacity: 1; white-space: pre; opacity: 1;" transform="translate(468.58,0)">0.006</text></g><g class="xtick"><text text-anchor="middle" x="0" y="596" style="font-family: 'Open Sans', verdana, arial, sans-serif; font-size: 25px; fill: rgb(68, 68, 68); fill-opacity: 1; white-space: pre; opacity: 1;" transform="translate(629.98,0)">0.008</text></g><g class="xtick"><text text-anchor="middle" x="0" y="596" style="font-family: 'Open Sans', verdana, arial, sans-serif; font-size: 25px; fill: rgb(68, 68, 68); fill-opacity: 1; white-space: pre; opacity: 1;" transform="translate(791.38,0)">0.01</text></g></g><g class="yaxislayer-above"><g class="ytick"><text text-anchor="end" x="85" y="8.75" transform="translate(0,519.3299999999999)" style="font-family: 'Open Sans', verdana, arial, sans-serif; font-size: 25px; fill: rgb(68, 68, 68); fill-opacity: 1; white-space: pre; opacity: 1;">0</text></g><g class="ytick"><text text-anchor="end" x="85" y="8.75" style="font-family: 'Open Sans', verdana, arial, sans-serif; font-size: 25px; fill: rgb(68, 68, 68); fill-opacity: 1; white-space: pre; opacity: 1;" transform="translate(0,430.53)">100</text></g><g class="ytick"><text text-anchor="end" x="85" y="8.75" style="font-family: 'Open Sans', verdana, arial, sans-serif; font-size: 25px; fill: rgb(68, 68, 68); fill-opacity: 1; white-space: pre; opacity: 1;" transform="translate(0,341.72)">200</text></g><g class="ytick"><text text-anchor="end" x="85" y="8.75" style="font-family: 'Open Sans', verdana, arial, sans-serif; font-size: 25px; fill: rgb(68, 68, 68); fill-opacity: 1; white-space: pre; opacity: 1;" transform="translate(0,252.92)">300</text></g><g class="ytick"><text text-anchor="end" x="85" y="8.75" style="font-family: 'Open Sans', verdana, arial, sans-serif; font-size: 25px; fill: rgb(68, 68, 68); fill-opacity: 1; white-space: pre; opacity: 1;" transform="translate(0,164.11)">400</text></g></g><g class="overaxes-above"/></g></g><g class="polarlayer"/><g class="smithlayer"/><g class="ternarylayer"/><g class="geolayer"/><g class="funnelarealayer"/><g class="pielayer"/><g class="iciclelayer"/><g class="treemaplayer"/><g class="sunburstlayer"/><g class="glimages"/><defs id="topdefs-7683e5"><g class="clips"/><clipPath id="legend7683e5"><rect width="249" height="142" x="0" y="0"/></clipPath></defs><g class="layer-above"><g class="imagelayer"/><g class="shapelayer"/></g><g class="infolayer"><g class="legend" pointer-events="all" transform="translate(687.6800000000001,100)"><rect class="bg" shape-rendering="crispEdges" width="249" height="142" x="0" y="0" style="stroke: rgb(68, 68, 68); stroke-opacity: 1; fill: rgb(255, 255, 255); fill-opacity: 1; stroke-width: 0px;"/><g class="scrollbox" transform="" clip-path="url(#legend7683e5)"><g class="groups"><g class="traces" transform="translate(0,21.450000000000003)" style="opacity: 1;"><text class="legendtext" text-anchor="start" x="40" y="8.97" style="font-family: 'Open Sans', verdana, arial, sans-serif; font-size: 23px; fill: rgb(68, 68, 68); fill-opacity: 1; white-space: pre;">default (5000)</text><g class="layers" style="opacity: 1;"><g class="legendfill"/><g class="legendlines"><path class="js-line" d="M5,0h30" style="fill: none; stroke: rgb(0, 0, 255); stroke-opacity: 1; stroke-width: 2px;"/></g><g class="legendsymbols"><g class="legendpoints"/></g></g><rect class="legendtoggle" x="0" y="-16.450000000000003" width="243.40625" height="32.900000000000006" style="fill: rgb(0, 0, 0); fill-opacity: 0;"/></g><g class="traces" transform="translate(0,54.35000000000001)" style="opacity: 1;"><text class="legendtext" text-anchor="start" x="40" y="8.97" style="font-family: 'Open Sans', verdana, arial, sans-serif; font-size: 23px; fill: rgb(68, 68, 68); fill-opacity: 1; white-space: pre;">gamma10 (5000)</text><g class="layers" style="opacity: 1;"><g class="legendfill"/><g class="legendlines"><path class="js-line" d="M5,0h30" style="fill: none; stroke: rgb(255, 255, 0); stroke-opacity: 1; stroke-width: 2px;"/></g><g class="legendsymbols"><g class="legendpoints"/></g></g><rect class="legendtoggle" x="0" y="-16.450000000000003" width="243.40625" height="32.900000000000006" style="fill: rgb(0, 0, 0); fill-opacity: 0;"/></g><g class="traces" transform="translate(0,87.25000000000001)" style="opacity: 1;"><text class="legendtext" text-anchor="start" x="40" y="8.97" style="font-family: 'Open Sans', verdana, arial, sans-serif; font-size: 23px; fill: rgb(68, 68, 68); fill-opacity: 1; white-space: pre;">noise05 (5000)</text><g class="layers" style="opacity: 1;"><g class="legendfill"/><g class="legendlines"><path class="js-line" d="M5,0h30" style="fill: none; stroke: rgb(0, 128, 0); stroke-opacity: 1; stroke-width: 2px;"/></g><g class="legendsymbols"><g class="legendpoints"/></g></g><rect class="legendtoggle" x="0" y="-16.450000000000003" width="243.40625" height="32.900000000000006" style="fill: rgb(0, 0, 0); fill-opacity: 0;"/></g><g class="traces" transform="translate(0,120.15000000000002)" style="opacity: 1;"><text class="legendtext" text-anchor="start" x="40" y="8.97" style="font-family: 'Open Sans', verdana, arial, sans-serif; font-size: 23px; fill: rgb(68, 68, 68); fill-opacity: 1; white-space: pre;">k10 (5000)</text><g class="layers" style="opacity: 1;"><g class="legendfill"/><g class="legendlines"><path class="js-line" d="M5,0h30" style="fill: none; stroke: rgb(255, 165, 0); stroke-opacity: 1; stroke-width: 2px;"/></g><g class="legendsymbols"><g class="legendpoints"/></g></g><rect class="legendtoggle" x="0" y="-16.450000000000003" width="243.40625" height="32.900000000000006" style="fill: rgb(0, 0, 0); fill-opacity: 0;"/></g></g></g><rect class="scrollbar" rx="20" ry="3" width="0" height="0" x="0" y="0" style="fill: rgb(128, 139, 164); fill-opacity: 1;"/></g><g class="g-gtitle"><text class="gtitle" x="500" y="50" text-anchor="middle" dy="0em" style="font-family: 'Open Sans', verdana, arial, sans-serif; font-size: 25px; fill: rgb(68, 68, 68); opacity: 1; font-weight: normal; white-space: pre;">BARKHAUSEN - energy</text></g><g class="g-xtitle" transform="translate(0,-10.1640625)"><text class="xtitle" x="503" y="655" text-anchor="middle" style="font-family: 'Open Sans', verdana, arial, sans-serif; font-size: 25px; fill: rgb(68, 68, 68); opacity: 1; font-weight: normal; white-space: pre;">energy value</text></g><g class="g-ytitle"><text class="ytitle" transform="rotate(-90,26,335)" x="26" y="335" text-anchor="middle" style="font-family: 'Open Sans', verdana, arial, sans-serif; font-size: 25px; fill: rgb(68, 68, 68); opacity: 1; font-weight: normal; white-space: pre;">number of utterances per value</text></g></g></svg>