<svg class="main-svg" xmlns="http://www.w3.org/2000/svg" xmlns:xlink="http://www.w3.org/1999/xlink" width="1000" height="650" style="" viewBox="0 0 1000 650"><rect x="0" y="0" width="1000" height="650" style="fill: rgb(255, 255, 255); fill-opacity: 1;"/><defs id="defs-33570f"><g class="clips"><clipPath id="clip33570fxyplot" class="plotclip"><rect width="834" height="470"/></clipPath><clipPath class="axesclip" id="clip33570fx"><rect x="86" y="0" width="834" height="650"/></clipPath><clipPath class="axesclip" id="clip33570fy"><rect x="0" y="100" width="1000" height="470"/></clipPath><clipPath class="axesclip" id="clip33570fxy"><rect x="86" y="100" width="834" height="470"/></clipPath></g><g class="gradients"/><g class="patterns"/></defs><g class="bglayer"/><g class="layer-below"><g class="imagelayer"/><g class="shapelayer"/></g><g class="cartesianlayer"><g class="subplot xy"><g class="layer-subplot"><g class="shapelayer"/><g class="imagelayer"/></g><g class="minor-gridlayer"><g class="x"/><g class="y"/></g><g class="gridlayer"><g class="x"><path class="xgrid crisp" transform="translate(109.3,0)" d="M0,100v470" style="stroke: rgb(238, 238, 238); stroke-opacity: 1; stroke-width: 1px;"/><path class="xgrid crisp" transform="translate(199.12,0)" d="M0,100v470" style="stroke: rgb(238, 238, 238); stroke-opacity: 1; stroke-width: 1px;"/><path class="xgrid crisp" transform="translate(288.95,0)" d="M0,100v470" style="stroke: rgb(238, 238, 238); stroke-opacity: 1; stroke-width: 1px;"/><path class="xgrid crisp" transform="translate(378.77,0)" d="M0,100v470" style="stroke: rgb(238, 238, 238); stroke-opacity: 1; stroke-width: 1px;"/><path class="xgrid crisp" transform="translate(468.6,0)" d="M0,100v470" style="stroke: rgb(238, 238, 238); stroke-opacity: 1; stroke-width: 1px;"/><path class="xgrid crisp" transform="translate(558.4200000000001,0)" d="M0,100v470" style="stroke: rgb(238, 238, 238); stroke-opacity: 1; stroke-width: 1px;"/><path class="xgrid crisp" transform="translate(648.25,0)" d="M0,100v470" style="stroke: rgb(238, 238, 238); stroke-opacity: 1; stroke-width: 1px;"/><path class="xgrid crisp" transform="translate(738.07,0)" d="M0,100v470" style="stroke: rgb(238, 238, 238); stroke-opacity: 1; stroke-width: 1px;"/><path class="xgrid crisp" transform="translate(827.89,0)" d="M0,100v470" style="stroke: rgb(238, 238, 238); stroke-opacity: 1; stroke-width: 1px;"/><path class="xgrid crisp" transform="translate(917.72,0)" d="M0,100v470" style="stroke: rgb(238, 238, 238); stroke-opacity: 1; stroke-width: 1px;"/></g><g class="y"><path class="ygrid crisp" transform="translate(0,438.36)" d="M86,0h834" style="stroke: rgb(238, 238, 238); stroke-opacity: 1; stroke-width: 1px;"/><path class="ygrid crisp" transform="translate(0,368.07)" d="M86,0h834" style="stroke: rgb(238, 238, 238); stroke-opacity: 1; stroke-width: 1px;"/><path class="ygrid crisp" transform="translate(0,297.78999999999996)" d="M86,0h834" style="stroke: rgb(238, 238, 238); stroke-opacity: 1; stroke-width: 1px;"/><path class="ygrid crisp" transform="translate(0,227.5)" d="M86,0h834" style="stroke: rgb(238, 238, 238); stroke-opacity: 1; stroke-width: 1px;"/><path class="ygrid crisp" transform="translate(0,157.21)" d="M86,0h834" style="stroke: rgb(238, 238, 238); stroke-opacity: 1; stroke-width: 1px;"/></g></g><g class="zerolinelayer"><path class="yzl zl crisp" transform="translate(0,508.64)" d="M86,0h834" style="stroke: rgb(68, 68, 68); stroke-opacity: 1; stroke-width: 1px;"/></g><path class="xlines-below"/><path class="ylines-below"/><g class="overlines-below"/><g class="xaxislayer-below"/><g class="yaxislayer-below"/><g class="overaxes-below"/><g class="plot" transform="translate(86,100)" clip-path="url(#clip33570fxyplot)"><g class="scatterlayer mlayer"><g class="trace scatter trace4864c4" style="stroke-miterlimit: 2; opacity: 1;"><g class="fills"/><g class="errorbars"/><g class="lines"><path class="js-line" d="M-156.35,407.94L-156.35,408.64L192.24,407.94L308.46,407.94L312.65,405.13L316.91,405.83L320.16,407.24L327.07,402.32L330.4,393.88L333.95,394.59L337.67,388.26L341.32,386.15L344.79,382.64L348.55,384.75L352.04,361.55L359.23,340.47L362.83,332.73L366.43,340.47L370.03,315.87L373.65,314.46L377.19,310.24L380.8,283.53L384.39,280.02L387.99,245.58L391.56,261.04L395.19,251.91L398.78,251.91L402.36,254.72L405.94,240.66L409.55,274.4L413.1,251.91L420.36,273.69L423.9,289.86L427.53,289.86L431.11,296.19L438.29,326.41L441.87,324.3L445.41,362.25L449.05,353.82L452.68,355.23L456.29,362.25L459.83,379.12L463.42,382.64L466.81,382.64L470.68,388.96L474.06,393.88L477.98,397.4L480.92,400.21L485.01,392.48L488.62,401.61L492.24,403.02L495.34,406.53L499.95,406.53L503.12,404.43L506.04,406.53L520.44,407.94L532.59,407.94" style="vector-effect: non-scaling-stroke; fill: none; stroke: rgb(0, 0, 255); stroke-opacity: 1; stroke-width: 2px; opacity: 1;"/></g><g class="points"/><g class="text"/></g><g class="trace scatter trace5ce7df" style="stroke-miterlimit: 2; opacity: 1;"><g class="fills"/><g class="errorbars"/><g class="lines"><path class="js-line" d="M-156.35,408.64L172.2,407.24L176.68,403.72L179.54,398.8L183.87,397.4L186.76,388.96L190.32,388.26L194.2,369.28L197.56,357.33L204.74,301.81L208.33,271.59L211.95,233.63L215.55,185.84L219.11,183.03L222.7,142.26L226.29,143.67L229.92,143.67L233.49,147.18L237.09,173.89L244.27,218.87L247.88,251.91L251.45,265.26L255.05,308.13L258.65,325L262.21,353.12L265.85,350.31L269.42,374.2L276.37,388.26L280.08,392.48L283.59,403.02L286.99,407.24L294.54,405.13L299.55,407.94L312.45,407.94" style="vector-effect: non-scaling-stroke; fill: none; stroke: rgb(255, 255, 0); stroke-opacity: 1; stroke-width: 2px; opacity: 1;"/></g><g class="points"/><g class="text"/></g><g class="trace scatter trace38b8af" style="stroke-miterlimit: 2; opacity: 1;"><g class="fills"/><g class="errorbars"/><g class="lines"><path class="js-line" d="M-156.35,408.64L-155.7,303.92L-130.03,407.94L-78.93,407.94L-71.89,407.24L-64.65,407.94L-54.36,405.83L-35.97,407.24L-25.21,405.13L-18.06,407.24L-5.41,407.94L0.16,405.83L9.18,405.83L19.08,407.24L27.09,407.24L36.07,407.24L45.61,405.13L52.58,407.24L61.45,407.24L89.68,406.53L98.8,407.94L126.31,404.43L136.76,407.24L144.57,407.24L154.42,405.83L162.64,403.72L171.71,405.13L178.41,407.24L192.49,407.24L196.03,405.13L209.39,403.72L215.68,404.43L227.59,407.24L234.55,405.13L243.11,406.53L252.01,404.43L257.76,407.24L271.56,407.94L279.72,405.13L287.59,406.53L294.38,405.83L306.91,403.72L315.23,405.13L324,405.13L332.91,399.51L342.22,381.93L351.13,374.2L360.17,354.52L369.13,322.19L378.22,287.75L387.09,216.76L396.09,179.51L405.05,111.33L414.03,80.41L423.04,77.6L432.03,70.57L440.99,101.49L449.95,150.69L458.91,193.57L467.92,254.72L476.89,277.21L485.89,320.08L494.84,368.58L503.68,378.42L512.76,398.1L521.83,402.32L531.48,403.02L538.57,405.13L544.89,407.94L561.48,407.24" style="vector-effect: non-scaling-stroke; fill: none; stroke: rgb(0, 128, 0); stroke-opacity: 1; stroke-width: 2px; opacity: 1;"/></g><g class="points"/><g class="text"/></g><g class="trace scatter tracead4c1e" style="stroke-miterlimit: 2; opacity: 1;"><g class="fills"/><g class="errorbars"/><g class="lines"><path class="js-line" d="M-156.35,408.64L298.08,407.24L315.03,405.83L324.75,405.13L333.21,398.1L342.51,388.26L351.15,366.47L360.19,336.25L369.06,287.05L378.12,258.23L387.08,204.11L396.06,142.26L405.05,101.49L414.03,83.22L423,44.56L432,103.6L440.96,91.65L449.96,142.26L458.94,182.32L467.93,239.25L476.9,285.64L485.93,334.84L494.85,348.2L503.6,374.91L513,387.56L521.38,396.69L531.44,402.32L539.59,403.02L554.22,407.24" style="vector-effect: non-scaling-stroke; fill: none; stroke: rgb(255, 165, 0); stroke-opacity: 1; stroke-width: 2px; opacity: 1;"/></g><g class="points"/><g class="text"/></g></g></g><g class="overplot"/><path class="xlines-above crisp" d="M0,0" style="fill: none;"/><path class="ylines-above crisp" d="M0,0" style="fill: none;"/><g class="overlines-above"/><g class="xaxislayer-above"><g class="xtick"><text text-anchor="middle" x="0" y="596" transform="translate(109.3,0)" style="font-family: 'Open Sans', verdana, arial, sans-serif; font-size: 25px; fill: rgb(68, 68, 68); fill-opacity: 1; white-space: pre; opacity: 1;">10</text></g><g class="xtick"><text text-anchor="middle" x="0" y="596" style="font-family: 'Open Sans', verdana, arial, sans-serif; font-size: 25px; fill: rgb(68, 68, 68); fill-opacity: 1; white-space: pre; opacity: 1;" transform="translate(199.12,0)">15</text></g><g class="xtick"><text text-anchor="middle" x="0" y="596" style="font-family: 'Open Sans', verdana, arial, sans-serif; font-size: 25px; fill: rgb(68, 68, 68); fill-opacity: 1; white-space: pre; opacity: 1;" transform="translate(288.95,0)">20</text></g><g class="xtick"><text text-anchor="middle" x="0" y="596" style="font-family: 'Open Sans', verdana, arial, sans-serif; font-size: 25px; fill: rgb(68, 68, 68); fill-opacity: 1; white-space: pre; opacity: 1;" transform="translate(378.77,0)">25</text></g><g class="xtick"><text text-anchor="middle" x="0" y="596" style="font-family: 'Open Sans', verdana, arial, sans-serif; font-size: 25px; fill: rgb(68, 68, 68); fill-opacity: 1; white-space: pre; opacity: 1;" transform="translate(468.6,0)">30</text></g><g class="xtick"><text text-anchor="middle" x="0" y="596" style="font-family: 'Open Sans', verdana, arial, sans-serif; font-size: 25px; fill: rgb(68, 68, 68); fill-opacity: 1; white-space: pre; opacity: 1;" transform="translate(558.4200000000001,0)">35</text></g><g class="xtick"><text text-anchor="middle" x="0" y="596" style="font-family: 'Open Sans', verdana, arial, sans-serif; font-size: 25px; fill: rgb(68, 68, 68); fill-opacity: 1; white-space: pre; opacity: 1;" transform="translate(648.25,0)">40</text></g><g class="xtick"><text text-anchor="middle" x="0" y="596" style="font-family: 'Open Sans', verdana, arial, sans-serif; font-size: 25px; fill: rgb(68, 68, 68); fill-opacity: 1; white-space: pre; opacity: 1;" transform="translate(738.07,0)">45</text></g><g class="xtick"><text text-anchor="middle" x="0" y="596" style="font-family: 'Open Sans', verdana, arial, sans-serif; font-size: 25px; fill: rgb(68, 68, 68); fill-opacity: 1; white-space: pre; opacity: 1;" transform="translate(827.89,0)">50</text></g><g class="xtick"><text text-anchor="middle" x="0" y="596" style="font-family: 'Open Sans', verdana, arial, sans-serif; font-size: 25px; fill: rgb(68, 68, 68); fill-opacity: 1; white-space: pre; opacity: 1;" transform="translate(917.72,0)">55</text></g></g><g class="yaxislayer-above"><g class="ytick"><text text-anchor="end" x="85" y="8.75" transform="translate(0,508.64)" style="font-family: 'Open Sans', verdana, arial, sans-serif; font-size: 25px; fill: rgb(68, 68, 68); fill-opacity: 1; white-space: pre; opacity: 1;">0</text></g><g class="ytick"><text text-anchor="end" x="85" y="8.75" style="font-family: 'Open Sans', verdana, arial, sans-serif; font-size: 25px; fill: rgb(68, 68, 68); fill-opacity: 1; white-space: pre; opacity: 1;" transform="translate(0,438.36)">100</text></g><g class="ytick"><text text-anchor="end" x="85" y="8.75" style="font-family: 'Open Sans', verdana, arial, sans-serif; font-size: 25px; fill: rgb(68, 68, 68); fill-opacity: 1; white-space: pre; opacity: 1;" transform="translate(0,368.07)">200</text></g><g class="ytick"><text text-anchor="end" x="85" y="8.75" style="font-family: 'Open Sans', verdana, arial, sans-serif; font-size: 25px; fill: rgb(68, 68, 68); fill-opacity: 1; white-space: pre; opacity: 1;" transform="translate(0,297.78999999999996)">300</text></g><g class="ytick"><text text-anchor="end" x="85" y="8.75" style="font-family: 'Open Sans', verdana, arial, sans-serif; font-size: 25px; fill: rgb(68, 68, 68); fill-opacity: 1; white-space: pre; opacity: 1;" transform="translate(0,227.5)">400</text></g><g class="ytick"><text text-anchor="end" x="85" y="8.75" style="font-family: 'Open Sans', verdana, arial, sans-serif; font-size: 25px; fill: rgb(68, 68, 68); fill-opacity: 1; white-space: pre; opacity: 1;" transform="translate(0,157.21)">500</text></g></g><g class="overaxes-above"/></g></g><g class="polarlayer"/><g class="smithlayer"/><g class="ternarylayer"/><g class="geolayer"/><g class="funnelarealayer"/><g class="pielayer"/><g class="iciclelayer"/><g class="treemaplayer"/><g class="sunburstlayer"/><g class="glimages"/><defs id="topdefs-33570f"><g class="clips"/><clipPath id="legend33570f"><rect width="249" height="142" x="0" y="0"/></clipPath></defs><g class="layer-above"><g class="imagelayer"/><g class="shapelayer"/></g><g class="infolayer"><g class="legend" pointer-events="all" transform="translate(687.6800000000001,100)"><rect class="bg" shape-rendering="crispEdges" width="249" height="142" x="0" y="0" style="stroke: rgb(68, 68, 68); stroke-opacity: 1; fill: rgb(255, 255, 255); fill-opacity: 1; stroke-width: 0px;"/><g class="scrollbox" transform="" clip-path="url(#legend33570f)"><g class="groups"><g class="traces" transform="translate(0,21.450000000000003)" style="opacity: 1;"><text class="legendtext" text-anchor="start" x="40" y="8.97" style="font-family: 'Open Sans', verdana, arial, sans-serif; font-size: 23px; fill: rgb(68, 68, 68); fill-opacity: 1; white-space: pre;">default (5000)</text><g class="layers" style="opacity: 1;"><g class="legendfill"/><g class="legendlines"><path class="js-line" d="M5,0h30" style="fill: none; stroke: rgb(0, 0, 255); stroke-opacity: 1; stroke-width: 2px;"/></g><g class="legendsymbols"><g class="legendpoints"/></g></g><rect class="legendtoggle" x="0" y="-16.450000000000003" width="243.40625" height="32.900000000000006" style="fill: rgb(0, 0, 0); fill-opacity: 0;"/></g><g class="traces" transform="translate(0,54.35000000000001)" style="opacity: 1;"><text class="legendtext" text-anchor="start" x="40" y="8.97" style="font-family: 'Open Sans', verdana, arial, sans-serif; font-size: 23px; fill: rgb(68, 68, 68); fill-opacity: 1; white-space: pre;">gamma10 (5000)</text><g class="layers" style="opacity: 1;"><g class="legendfill"/><g class="legendlines"><path class="js-line" d="M5,0h30" style="fill: none; stroke: rgb(255, 255, 0); stroke-opacity: 1; stroke-width: 2px;"/></g><g class="legendsymbols"><g class="legendpoints"/></g></g><rect class="legendtoggle" x="0" y="-16.450000000000003" width="243.40625" height="32.900000000000006" style="fill: rgb(0, 0, 0); fill-opacity: 0;"/></g><g class="traces" transform="translate(0,87.25000000000001)" style="opacity: 1;"><text class="legendtext" text-anchor="start" x="40" y="8.97" style="font-family: 'Open Sans', verdana, arial, sans-serif; font-size: 23px; fill: rgb(68, 68, 68); fill-opacity: 1; white-space: pre;">noise05 (5000)</text><g class="layers" style="opacity: 1;"><g class="legendfill"/><g class="legendlines"><path class="js-line" d="M5,0h30" style="fill: none; stroke: rgb(0, 128, 0); stroke-opacity: 1; stroke-width: 2px;"/></g><g class="legendsymbols"><g class="legendpoints"/></g></g><rect class="legendtoggle" x="0" y="-16.450000000000003" width="243.40625" height="32.900000000000006" style="fill: rgb(0, 0, 0); fill-opacity: 0;"/></g><g class="traces" transform="translate(0,120.15000000000002)" style="opacity: 1;"><text class="legendtext" text-anchor="start" x="40" y="8.97" style="font-family: 'Open Sans', verdana, arial, sans-serif; font-size: 23px; fill: rgb(68, 68, 68); fill-opacity: 1; white-space: pre;">k10 (5000)</text><g class="layers" style="opacity: 1;"><g class="legendfill"/><g class="legendlines"><path class="js-line" d="M5,0h30" style="fill: none; stroke: rgb(255, 165, 0); stroke-opacity: 1; stroke-width: 2px;"/></g><g class="legendsymbols"><g class="legendpoints"/></g></g><rect class="legendtoggle" x="0" y="-16.450000000000003" width="243.40625" height="32.900000000000006" style="fill: rgb(0, 0, 0); fill-opacity: 0;"/></g></g></g><rect class="scrollbar" rx="20" ry="3" width="0" height="0" x="0" y="0" style="fill: rgb(128, 139, 164); fill-opacity: 1;"/></g><g class="g-gtitle"><text class="gtitle" x="500" y="50" text-anchor="middle" dy="0em" style="font-family: 'Open Sans', verdana, arial, sans-serif; font-size: 25px; fill: rgb(68, 68, 68); opacity: 1; font-weight: normal; white-space: pre;">BARKHAUSEN - meanfun</text></g><g class="g-xtitle" transform="translate(0,-10)"><text class="xtitle" x="503" y="655" text-anchor="middle" style="font-family: 'Open Sans', verdana, arial, sans-serif; font-size: 25px; fill: rgb(68, 68, 68); opacity: 1; font-weight: normal; white-space: pre;">meanfun value</text></g><g class="g-ytitle"><text class="ytitle" transform="rotate(-90,26,335)" x="26" y="335" text-anchor="middle" style="font-family: 'Open Sans', verdana, arial, sans-serif; font-size: 25px; fill: rgb(68, 68, 68); opacity: 1; font-weight: normal; white-space: pre;">number of utterances per value</text></g></g></svg>