<svg class="main-svg" xmlns="http://www.w3.org/2000/svg" xmlns:xlink="http://www.w3.org/1999/xlink" width="1000" height="650" style="" viewBox="0 0 1000 650"><rect x="0" y="0" width="1000" height="650" style="fill: rgb(255, 255, 255); fill-opacity: 1;"/><defs id="defs-31c6f6"><g class="clips"><clipPath id="clip31c6f6xyplot" class="plotclip"><rect width="840" height="470"/></clipPath><clipPath class="axesclip" id="clip31c6f6x"><rect x="80" y="0" width="840" height="650"/></clipPath><clipPath class="axesclip" id="clip31c6f6y"><rect x="0" y="100" width="1000" height="470"/></clipPath><clipPath class="axesclip" id="clip31c6f6xy"><rect x="80" y="100" width="840" height="470"/></clipPath></g><g class="gradients"/><g class="patterns"/></defs><g class="bglayer"/><g class="layer-below"><g class="imagelayer"/><g class="shapelayer"/></g><g class="cartesianlayer"><g class="subplot xy"><g class="layer-subplot"><g class="shapelayer"/><g class="imagelayer"/></g><g class="minor-gridlayer"><g class="x"/><g class="y"/></g><g class="gridlayer"><g class="x"><path class="xgrid crisp" transform="translate(89.91,0)" d="M0,100v470" style="stroke: rgb(238, 238, 238); stroke-opacity: 1; stroke-width: 1px;"/><path class="xgrid crisp" transform="translate(195.01999999999998,0)" d="M0,100v470" style="stroke: rgb(238, 238, 238); stroke-opacity: 1; stroke-width: 1px;"/><path class="xgrid crisp" transform="translate(300.13,0)" d="M0,100v470" style="stroke: rgb(238, 238, 238); stroke-opacity: 1; stroke-width: 1px;"/><path class="xgrid crisp" transform="translate(405.25,0)" d="M0,100v470" style="stroke: rgb(238, 238, 238); stroke-opacity: 1; stroke-width: 1px;"/><path class="xgrid crisp" transform="translate(510.36,0)" d="M0,100v470" style="stroke: rgb(238, 238, 238); stroke-opacity: 1; stroke-width: 1px;"/><path class="xgrid crisp" transform="translate(615.47,0)" d="M0,100v470" style="stroke: rgb(238, 238, 238); stroke-opacity: 1; stroke-width: 1px;"/><path class="xgrid crisp" transform="translate(720.58,0)" d="M0,100v470" style="stroke: rgb(238, 238, 238); stroke-opacity: 1; stroke-width: 1px;"/><path class="xgrid crisp" transform="translate(825.69,0)" d="M0,100v470" style="stroke: rgb(238, 238, 238); stroke-opacity: 1; stroke-width: 1px;"/></g><g class="y"><path class="ygrid crisp" transform="translate(0,450.72)" d="M80,0h840" style="stroke: rgb(238, 238, 238); stroke-opacity: 1; stroke-width: 1px;"/><path class="ygrid crisp" transform="translate(0,369.06)" d="M80,0h840" style="stroke: rgb(238, 238, 238); stroke-opacity: 1; stroke-width: 1px;"/><path class="ygrid crisp" transform="translate(0,287.4)" d="M80,0h840" style="stroke: rgb(238, 238, 238); stroke-opacity: 1; stroke-width: 1px;"/><path class="ygrid crisp" transform="translate(0,205.74)" d="M80,0h840" style="stroke: rgb(238, 238, 238); stroke-opacity: 1; stroke-width: 1px;"/><path class="ygrid crisp" transform="translate(0,124.08)" d="M80,0h840" style="stroke: rgb(238, 238, 238); stroke-opacity: 1; stroke-width: 1px;"/></g></g><g class="zerolinelayer"><path class="yzl zl crisp" transform="translate(0,532.38)" d="M80,0h840" style="stroke: rgb(68, 68, 68); stroke-opacity: 1; stroke-width: 1px;"/></g><path class="xlines-below"/><path class="ylines-below"/><g class="overlines-below"/><g class="xaxislayer-below"/><g class="yaxislayer-below"/><g class="overaxes-below"/><g class="plot" transform="translate(80,100)" clip-path="url(#clip31c6f6xyplot)"><g class="scatterlayer mlayer"><g class="trace scatter trace115d45" style="stroke-miterlimit: 2; opacity: 1;"><g class="fills"/><g class="errorbars"/><g class="lines"><path class="js-line" d="M-200.31,431.56L-200.31,432.38L207.6,431.56L326.75,431.56L337.34,430.74L343.6,431.56L348.5,428.29L353.49,429.11L357.3,430.74L365.39,425.03L369.28,415.23L373.44,416.04L377.78,408.7L382.06,406.25L386.12,402.16L390.51,404.61L394.6,377.66L403.02,353.17L407.23,344.18L411.44,353.17L415.65,324.59L419.89,322.95L424.03,318.05L428.26,287.02L432.45,282.94L436.67,242.92L440.85,260.89L445.09,250.27L449.29,250.27L453.49,253.54L457.68,237.21L461.9,276.41L466.05,250.27L474.55,275.59L478.69,294.37L482.93,294.37L487.13,301.72L495.53,336.83L499.72,334.38L503.86,378.48L508.12,368.68L512.36,370.31L516.59,378.48L520.74,398.08L524.94,402.16L528.91,402.16L533.43,409.51L537.39,415.23L541.97,419.31L545.41,422.58L550.2,413.59L554.43,424.21L558.66,425.84L562.29,429.93L567.68,429.93L571.39,427.48L574.81,429.93L591.66,431.56L605.88,431.56" style="vector-effect: non-scaling-stroke; fill: none; stroke: rgb(0, 0, 255); stroke-opacity: 1; stroke-width: 2px; opacity: 1;"/></g><g class="points"/><g class="text"/></g><g class="trace scatter traceb7e075" style="stroke-miterlimit: 2; opacity: 1;"><g class="fills"/><g class="errorbars"/><g class="lines"><path class="js-line" d="M-200.31,432.38L180.53,431.56L184.15,430.74L189.39,426.66L192.75,420.94L197.8,419.31L201.19,409.51L205.35,408.7L209.9,386.65L213.83,372.76L218.02,343.37L226.44,273.14L230.66,229.04L234.88,173.51L239.05,170.25L243.25,122.88L247.45,124.52L251.7,124.52L255.87,128.6L260.08,159.63L264.29,183.31L268.49,211.89L272.72,250.27L276.89,265.79L281.1,315.6L285.32,335.2L289.48,367.86L293.74,364.6L297.92,392.36L302.25,402.16L306.05,408.7L310.39,413.59L314.5,425.84L318.48,430.74L323.1,429.11L327.32,428.29L333.17,431.56L334.55,431.56L343.65,430.74L348.28,431.56" style="vector-effect: non-scaling-stroke; fill: none; stroke: rgb(0, 128, 0); stroke-opacity: 1; stroke-width: 2px; opacity: 1;"/></g><g class="points"/><g class="text"/></g><g class="trace scatter trace180dc3" style="stroke-miterlimit: 2; opacity: 1;"><g class="fills"/><g class="errorbars"/><g class="lines"><path class="js-line" d="M-200.31,432.38L-199.55,310.7L-169.52,431.56L-101.48,430.74L-93,431.56L-80.96,429.11L-65.55,430.74L-59.45,430.74L-46.85,428.29L-38.49,430.74L-23.68,431.56L-17.17,429.11L-6.62,429.11L4.97,430.74L14.34,430.74L24.86,430.74L36.01,428.29L44.17,430.74L54.55,430.74L76.05,430.74L87.59,429.93L98.26,431.56L111.69,429.93L130.45,427.48L142.69,430.74L151.82,430.74L163.35,429.11L172.97,426.66L183.58,428.29L191.42,430.74L207.89,430.74L212.04,428.29L227.67,426.66L235.03,427.48L248.97,430.74L257.11,428.29L267.13,429.93L277.55,427.48L284.27,430.74L300.42,431.56L309.97,428.29L319.18,429.93L327.12,429.11L341.79,426.66L351.53,428.29L361.79,428.29L372.22,421.76L383.11,401.35L393.53,392.36L404.11,369.5L414.6,331.93L425.23,291.92L435.61,209.44L446.15,166.16L456.64,86.95L467.14,51.02L477.69,47.76L488.21,39.59L498.69,75.52L509.17,132.68L519.66,182.5L530.21,253.54L540.7,279.67L551.23,329.48L561.7,385.83L572.05,397.26L582.68,420.13L593.29,425.03L604.57,425.84L612.88,428.29L620.28,431.56L639.69,430.74" style="vector-effect: non-scaling-stroke; fill: none; stroke: rgb(255, 165, 0); stroke-opacity: 1; stroke-width: 2px; opacity: 1;"/></g><g class="points"/><g class="text"/></g><g class="trace scatter traced824a6" style="stroke-miterlimit: 2; opacity: 1;"><g class="fills"/><g class="errorbars"/><g class="lines"><path class="js-line" d="M-200.31,432.38L331.45,430.74L351.29,429.11L362.67,428.29L372.57,420.13L383.45,408.7L393.56,383.38L404.13,348.27L414.52,291.1L425.12,257.62L435.61,194.75L446.11,122.88L456.63,75.52L467.14,54.29L477.64,9.38L488.17,77.97L498.66,64.09L509.19,122.88L519.69,169.43L530.21,235.58L540.71,289.47L551.28,346.63L561.72,362.15L571.96,393.18L582.95,407.88L592.76,418.49L604.53,425.03L614.08,425.84L631.19,430.74" style="vector-effect: non-scaling-stroke; fill: none; stroke: rgb(255, 215, 0); stroke-opacity: 1; stroke-width: 2px; opacity: 1;"/></g><g class="points"/><g class="text"/></g></g></g><g class="overplot"/><path class="xlines-above crisp" d="M0,0" style="fill: none;"/><path class="ylines-above crisp" d="M0,0" style="fill: none;"/><g class="overlines-above"/><g class="xaxislayer-above"><g class="xtick"><text text-anchor="middle" x="0" y="596" transform="translate(89.91,0)" style="font-family: 'Open Sans', verdana, arial, sans-serif; font-size: 25px; fill: rgb(68, 68, 68); fill-opacity: 1; white-space: pre; opacity: 1;">10</text></g><g class="xtick"><text text-anchor="middle" x="0" y="596" style="font-family: 'Open Sans', verdana, arial, sans-serif; font-size: 25px; fill: rgb(68, 68, 68); fill-opacity: 1; white-space: pre; opacity: 1;" transform="translate(195.01999999999998,0)">15</text></g><g class="xtick"><text text-anchor="middle" x="0" y="596" style="font-family: 'Open Sans', verdana, arial, sans-serif; font-size: 25px; fill: rgb(68, 68, 68); fill-opacity: 1; white-space: pre; opacity: 1;" transform="translate(300.13,0)">20</text></g><g class="xtick"><text text-anchor="middle" x="0" y="596" style="font-family: 'Open Sans', verdana, arial, sans-serif; font-size: 25px; fill: rgb(68, 68, 68); fill-opacity: 1; white-space: pre; opacity: 1;" transform="translate(405.25,0)">25</text></g><g class="xtick"><text text-anchor="middle" x="0" y="596" style="font-family: 'Open Sans', verdana, arial, sans-serif; font-size: 25px; fill: rgb(68, 68, 68); fill-opacity: 1; white-space: pre; opacity: 1;" transform="translate(510.36,0)">30</text></g><g class="xtick"><text text-anchor="middle" x="0" y="596" style="font-family: 'Open Sans', verdana, arial, sans-serif; font-size: 25px; fill: rgb(68, 68, 68); fill-opacity: 1; white-space: pre; opacity: 1;" transform="translate(615.47,0)">35</text></g><g class="xtick"><text text-anchor="middle" x="0" y="596" style="font-family: 'Open Sans', verdana, arial, sans-serif; font-size: 25px; fill: rgb(68, 68, 68); fill-opacity: 1; white-space: pre; opacity: 1;" transform="translate(720.58,0)">40</text></g><g class="xtick"><text text-anchor="middle" x="0" y="596" style="font-family: 'Open Sans', verdana, arial, sans-serif; font-size: 25px; fill: rgb(68, 68, 68); fill-opacity: 1; white-space: pre; opacity: 1;" transform="translate(825.69,0)">45</text></g></g><g class="yaxislayer-above"><g class="ytick"><text text-anchor="end" x="79" y="8.75" transform="translate(0,532.38)" style="font-family: 'Open Sans', verdana, arial, sans-serif; font-size: 25px; fill: rgb(68, 68, 68); fill-opacity: 1; white-space: pre; opacity: 1;">0</text></g><g class="ytick"><text text-anchor="end" x="79" y="8.75" style="font-family: 'Open Sans', verdana, arial, sans-serif; font-size: 25px; fill: rgb(68, 68, 68); fill-opacity: 1; white-space: pre; opacity: 1;" transform="translate(0,450.72)">100</text></g><g class="ytick"><text text-anchor="end" x="79" y="8.75" style="font-family: 'Open Sans', verdana, arial, sans-serif; font-size: 25px; fill: rgb(68, 68, 68); fill-opacity: 1; white-space: pre; opacity: 1;" transform="translate(0,369.06)">200</text></g><g class="ytick"><text text-anchor="end" x="79" y="8.75" style="font-family: 'Open Sans', verdana, arial, sans-serif; font-size: 25px; fill: rgb(68, 68, 68); fill-opacity: 1; white-space: pre; opacity: 1;" transform="translate(0,287.4)">300</text></g><g class="ytick"><text text-anchor="end" x="79" y="8.75" style="font-family: 'Open Sans', verdana, arial, sans-serif; font-size: 25px; fill: rgb(68, 68, 68); fill-opacity: 1; white-space: pre; opacity: 1;" transform="translate(0,205.74)">400</text></g><g class="ytick"><text text-anchor="end" x="79" y="8.75" style="font-family: 'Open Sans', verdana, arial, sans-serif; font-size: 25px; fill: rgb(68, 68, 68); fill-opacity: 1; white-space: pre; opacity: 1;" transform="translate(0,124.08)">500</text></g></g><g class="overaxes-above"/></g></g><g class="polarlayer"/><g class="smithlayer"/><g class="ternarylayer"/><g class="geolayer"/><g class="funnelarealayer"/><g class="pielayer"/><g class="iciclelayer"/><g class="treemaplayer"/><g class="sunburstlayer"/><g class="glimages"/><defs id="topdefs-31c6f6"><g class="clips"/><clipPath id="legend31c6f6"><rect width="221" height="142" x="0" y="0"/></clipPath></defs><g class="layer-above"><g class="imagelayer"/><g class="shapelayer"/></g><g class="infolayer"><g class="legend" pointer-events="all" transform="translate(715.8000000000001,100)"><rect class="bg" shape-rendering="crispEdges" width="221" height="142" x="0" y="0" style="stroke: rgb(68, 68, 68); stroke-opacity: 1; fill: rgb(255, 255, 255); fill-opacity: 1; stroke-width: 0px;"/><g class="scrollbox" transform="" clip-path="url(#legend31c6f6)"><g class="groups"><g class="traces" transform="translate(0,21.450000000000003)" style="opacity: 1;"><text class="legendtext" text-anchor="start" x="40" y="8.97" style="font-family: 'Open Sans', verdana, arial, sans-serif; font-size: 23px; fill: rgb(68, 68, 68); fill-opacity: 1; white-space: pre;">default (5000)</text><g class="layers" style="opacity: 1;"><g class="legendfill"/><g class="legendlines"><path class="js-line" d="M5,0h30" style="fill: none; stroke: rgb(0, 0, 255); stroke-opacity: 1; stroke-width: 2px;"/></g><g class="legendsymbols"><g class="legendpoints"/></g></g><rect class="legendtoggle" x="0" y="-16.450000000000003" width="215.15625" height="32.900000000000006" style="fill: rgb(0, 0, 0); fill-opacity: 0;"/></g><g class="traces" transform="translate(0,54.35000000000001)" style="opacity: 1;"><text class="legendtext" text-anchor="start" x="40" y="8.97" style="font-family: 'Open Sans', verdana, arial, sans-serif; font-size: 23px; fill: rgb(68, 68, 68); fill-opacity: 1; white-space: pre;">gamma10 (5000)</text><g class="layers" style="opacity: 1;"><g class="legendfill"/><g class="legendlines"><path class="js-line" d="M5,0h30" style="fill: none; stroke: rgb(0, 128, 0); stroke-opacity: 1; stroke-width: 2px;"/></g><g class="legendsymbols"><g class="legendpoints"/></g></g><rect class="legendtoggle" x="0" y="-16.450000000000003" width="215.15625" height="32.900000000000006" style="fill: rgb(0, 0, 0); fill-opacity: 0;"/></g><g class="traces" transform="translate(0,87.25000000000001)" style="opacity: 1;"><text class="legendtext" text-anchor="start" x="40" y="8.97" style="font-family: 'Open Sans', verdana, arial, sans-serif; font-size: 23px; fill: rgb(68, 68, 68); fill-opacity: 1; white-space: pre;">noise05 (5000)</text><g class="layers" style="opacity: 1;"><g class="legendfill"/><g class="legendlines"><path class="js-line" d="M5,0h30" style="fill: none; stroke: rgb(255, 165, 0); stroke-opacity: 1; stroke-width: 2px;"/></g><g class="legendsymbols"><g class="legendpoints"/></g></g><rect class="legendtoggle" x="0" y="-16.450000000000003" width="215.15625" height="32.900000000000006" style="fill: rgb(0, 0, 0); fill-opacity: 0;"/></g><g class="traces" transform="translate(0,120.15000000000002)" style="opacity: 1;"><text class="legendtext" text-anchor="start" x="40" y="8.97" style="font-family: 'Open Sans', verdana, arial, sans-serif; font-size: 23px; fill: rgb(68, 68, 68); fill-opacity: 1; white-space: pre;">k10 (5000)</text><g class="layers" style="opacity: 1;"><g class="legendfill"/><g class="legendlines"><path class="js-line" d="M5,0h30" style="fill: none; stroke: rgb(255, 215, 0); stroke-opacity: 1; stroke-width: 2px;"/></g><g class="legendsymbols"><g class="legendpoints"/></g></g><rect class="legendtoggle" x="0" y="-16.450000000000003" width="215.15625" height="32.900000000000006" style="fill: rgb(0, 0, 0); fill-opacity: 0;"/></g></g></g><rect class="scrollbar" rx="20" ry="3" width="0" height="0" x="0" y="0" style="fill: rgb(128, 139, 164); fill-opacity: 1;"/></g><g class="g-gtitle"><text class="gtitle" x="500" y="50" text-anchor="middle" dy="0em" style="font-family: 'Open Sans', verdana, arial, sans-serif; font-size: 25px; fill: rgb(68, 68, 68); opacity: 1; font-weight: normal; white-space: pre;">BARKHAUSEN - meanfun</text></g><g class="g-xtitle" transform="translate(0,-10)"><text class="xtitle" x="500" y="655" text-anchor="middle" style="font-family: 'Open Sans', verdana, arial, sans-serif; font-size: 25px; fill: rgb(68, 68, 68); opacity: 1; font-weight: normal; white-space: pre;">meanfun value</text></g><g class="g-ytitle" transform="translate(3,0)"><text class="ytitle" transform="rotate(-90,20,335)" x="20" y="335" text-anchor="middle" style="font-family: 'Open Sans', verdana, arial, sans-serif; font-size: 25px; fill: rgb(68, 68, 68); opacity: 1; font-weight: normal; white-space: pre;">number of utterances per value</text></g></g></svg>