<svg class="main-svg" xmlns="http://www.w3.org/2000/svg" xmlns:xlink="http://www.w3.org/1999/xlink" width="1000" height="650" style="" viewBox="0 0 1000 650"><rect x="0" y="0" width="1000" height="650" style="fill: rgb(255, 255, 255); fill-opacity: 1;"/><defs id="defs-3876ed"><g class="clips"><clipPath id="clip3876edxyplot" class="plotclip"><rect width="834" height="470"/></clipPath><clipPath class="axesclip" id="clip3876edx"><rect x="86" y="0" width="834" height="650"/></clipPath><clipPath class="axesclip" id="clip3876edy"><rect x="0" y="100" width="1000" height="470"/></clipPath><clipPath class="axesclip" id="clip3876edxy"><rect x="86" y="100" width="834" height="470"/></clipPath></g><g class="gradients"/><g class="patterns"/></defs><g class="bglayer"/><g class="layer-below"><g class="imagelayer"/><g class="shapelayer"/></g><g class="cartesianlayer"><g class="subplot xy"><g class="layer-subplot"><g class="shapelayer"/><g class="imagelayer"/></g><g class="minor-gridlayer"><g class="x"/><g class="y"/></g><g class="gridlayer"><g class="x"><path class="xgrid crisp" transform="translate(181.72,0)" d="M0,100v470" style="stroke: rgb(238, 238, 238); stroke-opacity: 1; stroke-width: 1px;"/><path class="xgrid crisp" transform="translate(321.91999999999996,0)" d="M0,100v470" style="stroke: rgb(238, 238, 238); stroke-opacity: 1; stroke-width: 1px;"/><path class="xgrid crisp" transform="translate(462.12,0)" d="M0,100v470" style="stroke: rgb(238, 238, 238); stroke-opacity: 1; stroke-width: 1px;"/><path class="xgrid crisp" transform="translate(602.32,0)" d="M0,100v470" style="stroke: rgb(238, 238, 238); stroke-opacity: 1; stroke-width: 1px;"/><path class="xgrid crisp" transform="translate(742.52,0)" d="M0,100v470" style="stroke: rgb(238, 238, 238); stroke-opacity: 1; stroke-width: 1px;"/><path class="xgrid crisp" transform="translate(882.72,0)" d="M0,100v470" style="stroke: rgb(238, 238, 238); stroke-opacity: 1; stroke-width: 1px;"/></g><g class="y"><path class="ygrid crisp" transform="translate(0,462.77)" d="M86,0h834" style="stroke: rgb(238, 238, 238); stroke-opacity: 1; stroke-width: 1px;"/><path class="ygrid crisp" transform="translate(0,369.73)" d="M86,0h834" style="stroke: rgb(238, 238, 238); stroke-opacity: 1; stroke-width: 1px;"/><path class="ygrid crisp" transform="translate(0,276.69)" d="M86,0h834" style="stroke: rgb(238, 238, 238); stroke-opacity: 1; stroke-width: 1px;"/><path class="ygrid crisp" transform="translate(0,183.66)" d="M86,0h834" style="stroke: rgb(238, 238, 238); stroke-opacity: 1; stroke-width: 1px;"/></g></g><g class="zerolinelayer"><path class="yzl zl crisp" transform="translate(0,555.81)" d="M86,0h834" style="stroke: rgb(68, 68, 68); stroke-opacity: 1; stroke-width: 1px;"/></g><path class="xlines-below"/><path class="ylines-below"/><g class="overlines-below"/><g class="xaxislayer-below"/><g class="yaxislayer-below"/><g class="overaxes-below"/><g class="plot" transform="translate(86,100)" clip-path="url(#clip3876edxyplot)"><g class="scatterlayer mlayer"><g class="trace scatter traceb00760" style="stroke-miterlimit: 2; opacity: 1;"><g class="fills"/><g class="errorbars"/><g class="lines"><path class="js-line" d="M-15887.01,455.81L234.01,454.88L245.37,453.02L255.2,452.09L275.29,451.15L284.87,437.2L299.26,422.31L326.98,389.75L341.1,332.07L355.09,313.46L369.11,247.4L383.11,223.21L397.13,135.76L411.17,101.33L425.19,49.23L439.2,11.09L453.31,25.04L467.25,28.77L481.27,89.24L495.3,121.8L509.32,195.3L523.33,265.08L537.22,342.3L551.08,376.73L564.36,433.48L579.31,446.5L590.69,452.09L717.46,454.88" style="vector-effect: non-scaling-stroke; fill: none; stroke: rgb(0, 0, 255); stroke-opacity: 1; stroke-width: 2px; opacity: 1;"/></g><g class="points"/><g class="text"/></g><g class="trace scatter traceb3c9ed" style="stroke-miterlimit: 2; opacity: 1;"><g class="fills"/><g class="errorbars"/><g class="lines"><path class="js-line" d="M281.48,454.88L316.96,454.88L326.09,452.09L341.1,443.71L355.48,428.83L369.17,400.91L383.26,394.4L397.14,352.54L411.14,344.16L425.29,320.9L439.23,310.67L453.19,314.39L467.15,283.69L481.33,273.45L495.32,262.29L509.33,260.43L523.31,221.35L537.32,212.05L551.41,204.61L565.4,206.47L579.4,175.76L593.45,160.88L607.46,138.55L621.44,170.18L635.49,178.56L649.55,249.26L663.48,239.03L691.37,383.24L705.16,424.17L714.63,449.29" style="vector-effect: non-scaling-stroke; fill: none; stroke: rgb(255, 255, 0); stroke-opacity: 1; stroke-width: 2px; opacity: 1;"/></g><g class="points"/><g class="text"/></g><g class="trace scatter trace74d669" style="stroke-miterlimit: 2; opacity: 1;"><g class="fills"/><g class="errorbars"/><g class="lines"><path class="js-line" d="M-15887.01,455.81L-49.45,454.88L-35.17,453.02L-8.55,442.78L5.02,439.99L18.85,431.62L32.62,427.9L46.89,415.8L60.93,415.8L74.54,386.03L88.72,364.63L102.83,351.61L116.9,314.39L130.81,279.04L144.81,252.99L158.8,154.37L172.83,167.39L186.81,109.71L200.87,132.04L214.87,86.45L228.96,116.22L242.89,140.41L256.95,194.37L270.97,250.19L284.98,257.64L299.04,281.83L313.11,329.28L327,353.47L341,383.24L354.48,413.01L369.49,429.76L383.95,441.85L398.55,447.43L435.79,454.88L449.72,452.09L467.15,453.02L483.74,454.88L493.95,454.88L533.28,453.95L551.18,453.02L564.85,454.88L619.37,454.88L635.36,453.95L647.85,454.88L665.66,454.88L679.9,453.02L692.09,453.02L705.99,450.22L716.54,317.18" style="vector-effect: non-scaling-stroke; fill: none; stroke: rgb(0, 128, 0); stroke-opacity: 1; stroke-width: 2px; opacity: 1;"/></g><g class="points"/><g class="text"/></g><g class="trace scatter tracecd7988" style="stroke-miterlimit: 2; opacity: 1;"><g class="fills"/><g class="errorbars"/><g class="lines"><path class="js-line" d="M-15887.01,455.81L59.89,454.88L65.52,444.64L70.71,450.22L76.2,434.41L82,416.73L87.29,367.42L92.91,347.88L98.53,273.45L109.75,156.23L115.35,111.57L120.95,72.49L126.55,12.95L132.18,39L137.8,52.02L143.37,93.89L148.99,154.37L154.61,225.07L160.22,254.85L165.83,274.38L171.43,316.25L177.02,373.93L182.68,406.5L188.32,417.66L193.78,418.59L199.26,436.27L205.38,445.57L208.11,453.95L214.94,453.02L223.12,452.09L225.43,454.88" style="vector-effect: non-scaling-stroke; fill: none; stroke: rgb(255, 165, 0); stroke-opacity: 1; stroke-width: 2px; opacity: 1;"/></g><g class="points"/><g class="text"/></g></g></g><g class="overplot"/><path class="xlines-above crisp" d="M0,0" style="fill: none;"/><path class="ylines-above crisp" d="M0,0" style="fill: none;"/><g class="overlines-above"/><g class="xaxislayer-above"><g class="xtick"><text text-anchor="middle" x="0" y="596" transform="translate(181.72,0)" style="font-family: 'Open Sans', verdana, arial, sans-serif; font-size: 25px; fill: rgb(68, 68, 68); fill-opacity: 1; white-space: pre; opacity: 1;">5.7</text></g><g class="xtick"><text text-anchor="middle" x="0" y="596" style="font-family: 'Open Sans', verdana, arial, sans-serif; font-size: 25px; fill: rgb(68, 68, 68); fill-opacity: 1; white-space: pre; opacity: 1;" transform="translate(321.91999999999996,0)">5.75</text></g><g class="xtick"><text text-anchor="middle" x="0" y="596" style="font-family: 'Open Sans', verdana, arial, sans-serif; font-size: 25px; fill: rgb(68, 68, 68); fill-opacity: 1; white-space: pre; opacity: 1;" transform="translate(462.12,0)">5.8</text></g><g class="xtick"><text text-anchor="middle" x="0" y="596" style="font-family: 'Open Sans', verdana, arial, sans-serif; font-size: 25px; fill: rgb(68, 68, 68); fill-opacity: 1; white-space: pre; opacity: 1;" transform="translate(602.32,0)">5.85</text></g><g class="xtick"><text text-anchor="middle" x="0" y="596" style="font-family: 'Open Sans', verdana, arial, sans-serif; font-size: 25px; fill: rgb(68, 68, 68); fill-opacity: 1; white-space: pre; opacity: 1;" transform="translate(742.52,0)">5.9</text></g><g class="xtick"><text text-anchor="middle" x="0" y="596" style="font-family: 'Open Sans', verdana, arial, sans-serif; font-size: 25px; fill: rgb(68, 68, 68); fill-opacity: 1; white-space: pre; opacity: 1;" transform="translate(882.72,0)">5.95</text></g></g><g class="yaxislayer-above"><g class="ytick"><text text-anchor="end" x="85" y="8.75" transform="translate(0,555.81)" style="font-family: 'Open Sans', verdana, arial, sans-serif; font-size: 25px; fill: rgb(68, 68, 68); fill-opacity: 1; white-space: pre; opacity: 1;">0</text></g><g class="ytick"><text text-anchor="end" x="85" y="8.75" style="font-family: 'Open Sans', verdana, arial, sans-serif; font-size: 25px; fill: rgb(68, 68, 68); fill-opacity: 1; white-space: pre; opacity: 1;" transform="translate(0,462.77)">100</text></g><g class="ytick"><text text-anchor="end" x="85" y="8.75" style="font-family: 'Open Sans', verdana, arial, sans-serif; font-size: 25px; fill: rgb(68, 68, 68); fill-opacity: 1; white-space: pre; opacity: 1;" transform="translate(0,369.73)">200</text></g><g class="ytick"><text text-anchor="end" x="85" y="8.75" style="font-family: 'Open Sans', verdana, arial, sans-serif; font-size: 25px; fill: rgb(68, 68, 68); fill-opacity: 1; white-space: pre; opacity: 1;" transform="translate(0,276.69)">300</text></g><g class="ytick"><text text-anchor="end" x="85" y="8.75" style="font-family: 'Open Sans', verdana, arial, sans-serif; font-size: 25px; fill: rgb(68, 68, 68); fill-opacity: 1; white-space: pre; opacity: 1;" transform="translate(0,183.66)">400</text></g></g><g class="overaxes-above"/></g></g><g class="polarlayer"/><g class="smithlayer"/><g class="ternarylayer"/><g class="geolayer"/><g class="funnelarealayer"/><g class="pielayer"/><g class="iciclelayer"/><g class="treemaplayer"/><g class="sunburstlayer"/><g class="glimages"/><defs id="topdefs-3876ed"><g class="clips"/><clipPath id="legend3876ed"><rect width="249" height="142" x="0" y="0"/></clipPath></defs><g class="layer-above"><g class="imagelayer"/><g class="shapelayer"/></g><g class="infolayer"><g class="legend" pointer-events="all" transform="translate(687.6800000000001,100)"><rect class="bg" shape-rendering="crispEdges" width="249" height="142" x="0" y="0" style="stroke: rgb(68, 68, 68); stroke-opacity: 1; fill: rgb(255, 255, 255); fill-opacity: 1; stroke-width: 0px;"/><g class="scrollbox" transform="" clip-path="url(#legend3876ed)"><g class="groups"><g class="traces" transform="translate(0,21.450000000000003)" style="opacity: 1;"><text class="legendtext" text-anchor="start" x="40" y="8.97" style="font-family: 'Open Sans', verdana, arial, sans-serif; font-size: 23px; fill: rgb(68, 68, 68); fill-opacity: 1; white-space: pre;">default (5000)</text><g class="layers" style="opacity: 1;"><g class="legendfill"/><g class="legendlines"><path class="js-line" d="M5,0h30" style="fill: none; stroke: rgb(0, 0, 255); stroke-opacity: 1; stroke-width: 2px;"/></g><g class="legendsymbols"><g class="legendpoints"/></g></g><rect class="legendtoggle" x="0" y="-16.450000000000003" width="243.40625" height="32.900000000000006" style="fill: rgb(0, 0, 0); fill-opacity: 0;"/></g><g class="traces" transform="translate(0,54.35000000000001)" style="opacity: 1;"><text class="legendtext" text-anchor="start" x="40" y="8.97" style="font-family: 'Open Sans', verdana, arial, sans-serif; font-size: 23px; fill: rgb(68, 68, 68); fill-opacity: 1; white-space: pre;">gamma10 (5000)</text><g class="layers" style="opacity: 1;"><g class="legendfill"/><g class="legendlines"><path class="js-line" d="M5,0h30" style="fill: none; stroke: rgb(255, 255, 0); stroke-opacity: 1; stroke-width: 2px;"/></g><g class="legendsymbols"><g class="legendpoints"/></g></g><rect class="legendtoggle" x="0" y="-16.450000000000003" width="243.40625" height="32.900000000000006" style="fill: rgb(0, 0, 0); fill-opacity: 0;"/></g><g class="traces" transform="translate(0,87.25000000000001)" style="opacity: 1;"><text class="legendtext" text-anchor="start" x="40" y="8.97" style="font-family: 'Open Sans', verdana, arial, sans-serif; font-size: 23px; fill: rgb(68, 68, 68); fill-opacity: 1; white-space: pre;">noise05 (5000)</text><g class="layers" style="opacity: 1;"><g class="legendfill"/><g class="legendlines"><path class="js-line" d="M5,0h30" style="fill: none; stroke: rgb(0, 128, 0); stroke-opacity: 1; stroke-width: 2px;"/></g><g class="legendsymbols"><g class="legendpoints"/></g></g><rect class="legendtoggle" x="0" y="-16.450000000000003" width="243.40625" height="32.900000000000006" style="fill: rgb(0, 0, 0); fill-opacity: 0;"/></g><g class="traces" transform="translate(0,120.15000000000002)" style="opacity: 1;"><text class="legendtext" text-anchor="start" x="40" y="8.97" style="font-family: 'Open Sans', verdana, arial, sans-serif; font-size: 23px; fill: rgb(68, 68, 68); fill-opacity: 1; white-space: pre;">k10 (5000)</text><g class="layers" style="opacity: 1;"><g class="legendfill"/><g class="legendlines"><path class="js-line" d="M5,0h30" style="fill: none; stroke: rgb(255, 165, 0); stroke-opacity: 1; stroke-width: 2px;"/></g><g class="legendsymbols"><g class="legendpoints"/></g></g><rect class="legendtoggle" x="0" y="-16.450000000000003" width="243.40625" height="32.900000000000006" style="fill: rgb(0, 0, 0); fill-opacity: 0;"/></g></g></g><rect class="scrollbar" rx="20" ry="3" width="0" height="0" x="0" y="0" style="fill: rgb(128, 139, 164); fill-opacity: 1;"/></g><g class="g-gtitle"><text class="gtitle" x="500" y="50" text-anchor="middle" dy="0em" style="font-family: 'Open Sans', verdana, arial, sans-serif; font-size: 25px; fill: rgb(68, 68, 68); opacity: 1; font-weight: normal; white-space: pre;">BARKHAUSEN - rms</text></g><g class="g-xtitle" transform="translate(0,-10)"><text class="xtitle" x="503" y="655" text-anchor="middle" style="font-family: 'Open Sans', verdana, arial, sans-serif; font-size: 25px; fill: rgb(68, 68, 68); opacity: 1; font-weight: normal; white-space: pre;">rms value</text></g><g class="g-ytitle"><text class="ytitle" transform="rotate(-90,26,335)" x="26" y="335" text-anchor="middle" style="font-family: 'Open Sans', verdana, arial, sans-serif; font-size: 25px; fill: rgb(68, 68, 68); opacity: 1; font-weight: normal; white-space: pre;">number of utterances per value</text></g></g></svg>